<svg width="1512" height="982" viewBox="0 0 1512 982" fill="none" xmlns="http://www.w3.org/2000/svg">
<g opacity="0.1" clip-path="url(#clip0_7_119)">
<mask id="mask0_7_119" style="mask-type:luminance" maskUnits="userSpaceOnUse" x="0" y="0" width="1512" height="982">
<path d="M1512 0H0V982H1512V0Z" fill="white"/>
</mask>
<g mask="url(#mask0_7_119)">
<path d="M126.493 -2.40925e-05C152.89 20.3414 120.771 108.827 147 113.316C204.529 123.171 218.568 55.6583 294 28.6884C365.568 3.1038 368.371 21.8495 441 8.18915C444.643 7.50526 442.89 0.210404 446.544 -2.40925e-05C516.39 -3.89295 517.272 -2.40925e-05 588 -2.40925e-05C661.5 -2.40925e-05 661.5 -2.40925e-05 735 -2.40925e-05C791.542 -2.40925e-05 792.844 -9.89017 848.074 -2.40925e-05C866.344 3.26162 868.224 26.3035 882 26.3035C888.205 26.3035 880.183 1.40283 888.037 -2.40925e-05C953.683 -11.749 958.524 -2.40925e-05 1029 -2.40925e-05C1102.5 -2.40925e-05 1102.5 -2.40925e-05 1176 -2.40925e-05C1249.5 -2.40925e-05 1249.5 -2.40925e-05 1323 -2.40925e-05C1396.5 -2.40925e-05 1396.5 -2.40925e-05 1470 -2.40925e-05C1543.5 -2.40925e-05 1580.25 -61.375 1617 -2.40925e-05C1653.75 61.375 1617 122.75 1617 245.5C1617 368.25 1617 368.25 1617 491C1617 584.956 1643.82 617.625 1617 678.913C1590.11 740.375 1509.57 699.342 1509.57 736.5C1509.57 776.727 1585.9 762.611 1617 833.683C1639.61 885.361 1644.68 954.066 1617 982C1571.18 1028.22 1543.5 982 1470 982C1396.5 982 1396.5 982 1323 982C1270.84 982 1247.79 1031.96 1218.68 982C1176.27 909.209 1200.55 858.093 1179.97 736.5C1179.2 731.976 1178.69 729.766 1176 729.766C1160.37 729.766 1159.15 729.17 1143.33 736.5C1085.65 763.224 1080.22 748.494 1029 797.875C952.896 871.244 959.521 893.252 888.678 982C886.021 985.314 885.339 982 882 982C808.5 982 808.5 982 735 982C661.5 982 661.5 982 588 982C514.5 982 514.5 982 441 982C367.5 982 367.5 982 294 982C236.953 982 224.794 1015.07 179.907 982C151.294 960.922 163.17 873.699 147 873.699C130.966 873.699 143.745 961.185 115.5 982C70.2449 1015.34 25.4099 1036.01 -5.15171e-05 982C-32.34 913.26 -5.15171e-05 859.25 -5.15171e-05 736.5C-5.15171e-05 613.75 -5.15171e-05 613.75 -5.15171e-05 491C-5.15171e-05 368.25 -5.15171e-05 368.25 -5.15171e-05 245.5C-5.15171e-05 122.75 -33.9991 65.9693 -5.15171e-05 -2.40925e-05C29.2529 -56.7807 79.3904 -36.3165 126.493 -2.40925e-05Z" stroke="white" stroke-opacity="0.58" stroke-width="2"/>
<path d="M1470 204.098C1453.83 204.098 1438.34 221.195 1438.34 245.5C1438.34 277.696 1453.58 317.098 1470 317.098C1487.15 317.098 1505.48 277.275 1505.48 245.5C1505.48 220.775 1487.4 204.098 1470 204.098Z" stroke="white" stroke-opacity="0.58" stroke-width="2"/>
<path d="M735 398.937C711.112 415.684 714.325 449.107 714.325 491C714.325 510.921 721.99 514.884 735 522.564C805.822 564.404 807.933 560.213 882 590.059C954.933 619.449 977.308 671.741 1029 641.036C1060.67 622.22 1048.72 565.544 1048.72 491C1048.72 431.817 1056.67 393.098 1029 373.581C973.308 334.283 955.3 367.04 882 373.37C808.3 379.718 794.955 356.869 735 398.937Z" stroke="white" stroke-opacity="0.58" stroke-width="2"/>
<path d="M1323 424.364C1304.86 424.364 1291.96 459.366 1291.96 491C1291.96 518.321 1305.54 542.257 1323 542.257C1347.4 542.257 1375.7 519.285 1375.7 491C1375.7 460.348 1346.73 424.364 1323 424.364Z" stroke="white" stroke-opacity="0.58" stroke-width="2"/>
<path d="M294 667.988C250.141 686.067 211.953 700.482 211.953 736.5C211.953 773.5 249.364 803.153 294 814.025C363.888 831.053 367.353 798.05 441 792.299C514.353 786.564 519.204 811.991 588 791.054C610.858 784.092 624.298 765.153 624.298 736.5C624.298 705.146 612.307 683.56 588 671.039C520.653 636.354 514.552 642.842 441 642.07C367.552 641.316 364.665 638.861 294 667.988Z" stroke="white" stroke-opacity="0.58" stroke-width="2"/>
<path d="M41.0235 -5.00332e-05C82.2465 97.6739 72.744 122.452 103.624 245.5C125.727 333.582 125.317 422.26 147 422.26C168.682 422.26 156.282 318.291 190.375 245.5C229.782 161.364 234.664 140.373 294 108.406C359.982 72.8608 374.955 142.741 441 110.475C485.898 88.5378 473.193 32.0903 515.886 -5.00332e-05C546.693 -23.1472 551.943 -5.00332e-05 588 -5.00332e-05C634.609 -5.00332e-05 681.219 -27.8292 681.219 -5.00332e-05C681.219 36.0008 631.606 58.6394 588 127.66C554.043 181.389 526.102 187.562 526.102 245.5C526.102 301.036 558.096 298.493 588 354.607C623.5 421.243 656.911 427.521 656.911 491C656.911 544.817 627.112 589.2 588 589.2C521.535 589.2 516.306 541.608 445.746 491C442.806 488.896 443.257 483.775 441 483.775C438.952 483.775 439.761 488.983 437.136 491C366.261 545.396 368.592 562.633 294 596.618C223.524 628.726 206.02 576.644 147 623.184C117.316 646.594 130.116 678.702 116.581 736.5C88.116 858.11 104.559 894.479 63 982C46.263 1017.23 9.44995 1018.83 -4.84943e-05 982C-22.05 896.075 -4.84943e-05 859.25 -4.84943e-05 736.5C-4.84943e-05 613.75 -4.84943e-05 613.75 -4.84943e-05 491C-4.84943e-05 368.25 -4.84943e-05 368.25 -4.84943e-05 245.5C-4.84943e-05 122.75 -16.0336 95.9729 -4.84943e-05 -5.00332e-05C4.47295 -26.7771 30.4395 -25.0761 41.0235 -5.00332e-05Z" stroke="white" stroke-opacity="0.58" stroke-width="2"/>
<path d="M1029 190.473C974.116 179.127 938.385 58.7096 938.385 7.68162e-06C938.385 -36.5269 983.692 7.68162e-06 1029 7.68162e-06C1102.5 7.68162e-06 1102.5 7.68162e-06 1176 7.68162e-06C1212.75 7.68162e-06 1213.96 -11.1352 1249.5 7.68162e-06C1287.46 11.8892 1290.84 46.0313 1323 46.0313C1336.41 46.0313 1325.8 4.64697 1340.64 7.68162e-06C1399.3 -18.3774 1405.32 7.68162e-06 1470 7.68162e-06C1543.5 7.68162e-06 1580.25 -61.375 1617 7.68162e-06C1653.75 61.375 1617 122.75 1617 245.5C1617 368.25 1617 368.25 1617 491C1617 547.079 1639.93 590.375 1617 603.141C1566.43 631.303 1532.7 613.733 1470 572.839C1446.72 557.653 1445.04 529.14 1445.04 491C1445.04 465.205 1458.03 468.712 1470 444.969C1519.93 345.962 1568.85 334.038 1568.85 245.5C1568.85 176.637 1518.48 130.15 1470 130.15C1424.95 130.15 1424.63 185.335 1381.8 245.5C1351.13 288.603 1349.58 286.762 1323 336.686C1284.24 409.512 1251.14 417.753 1251.14 491C1251.14 554.251 1284.14 556.145 1323 609.699C1373.22 678.895 1429.29 659.922 1429.29 736.5C1429.29 838.698 1374.02 967.27 1323 967.27C1274.2 967.27 1280.04 846.782 1229.63 736.5C1206.54 685.997 1201.93 692.485 1176 645.7C1133.88 569.735 1093.53 569.069 1093.53 491C1093.53 411.055 1130.52 402.62 1176 329.671C1207.04 279.87 1246.56 299.843 1246.56 245.5C1246.56 159.557 1224.63 61.3926 1176 49.1C1115.85 33.879 1092.92 203.677 1029 190.473Z" stroke="white" stroke-opacity="0.58" stroke-width="2"/>
<path d="M669.669 736.5C704.676 677.194 693.556 617.818 735 610.243C799.722 598.424 809.266 650.873 882 697.729C907.273 714.002 931.003 712.108 931.003 736.5C931.003 764.978 907.315 771.747 882 803.451C809.319 894.497 808.5 892.726 735 982C661.5 982 661.5 982 588 982C514.5 982 514.5 982 441 982C367.5 982 367.5 982 294 982C264.379 982 234.759 1000.69 234.759 982C234.759 957.082 257.974 911.664 294 894.777C361.095 863.318 367.678 894.146 441 885.291C514.678 876.382 522.417 901.932 588 859.25C636.751 827.528 631.176 801.698 669.669 736.5Z" stroke="white" stroke-opacity="0.58" stroke-width="2"/>
<path d="M-7.70249e-05 102.952C11.4659 102.952 39.2594 169.5 43.3754 245.5C49.7594 363.533 34.4714 368.986 20.9999 491C12.7889 565.386 5.32342 638.3 -7.70249e-05 638.3C-5.17658 638.3 -7.70249e-05 564.65 -7.70249e-05 491C-7.70249e-05 368.25 -7.70249e-05 368.25 -7.70249e-05 245.5C-7.70249e-05 174.235 -10.2271 102.952 -7.70249e-05 102.952Z" stroke="white" stroke-opacity="0.58" stroke-width="2"/>
<path d="M250.624 245.5C258.636 204.238 268.065 192.56 294 188.106C363.247 176.199 370.723 188.702 441 212.761C454.534 217.39 461.632 226.772 461.632 245.5C461.632 272.014 453.768 277.397 441 303.263C393.162 400.147 395.419 407.951 340.42 491C321.919 518.934 317.625 525.247 294 525.247C265.009 525.247 241.626 532.454 235.2 491C219.943 392.59 229.236 355.694 250.624 245.5Z" stroke="white" stroke-opacity="0.58" stroke-width="2"/>
<path d="M588 4.90995C586.52 4.90995 585.228 1.45541 585.228 -5.11122e-05C585.228 -0.999587 586.614 -5.11122e-05 588 -5.11122e-05C589.785 -5.11122e-05 591.581 -1.06973 591.581 -5.11122e-05C591.581 1.38527 589.701 4.90995 588 4.90995Z" stroke="white" stroke-opacity="0.58" stroke-width="2"/>
<path d="M1029 84.6624C1004.93 84.6624 988.722 26.0931 988.722 -9.37734e-06C988.722 -16.2381 1008.86 -9.37734e-06 1029 -9.37734e-06C1066.68 -9.37734e-06 1104.38 -19.2016 1104.38 -9.37734e-06C1104.38 23.1296 1062.77 84.6624 1029 84.6624Z" stroke="white" stroke-opacity="0.58" stroke-width="2"/>
<path d="M1320.06 245.5C1320.06 242.133 1321.66 237.837 1323 237.837C1324.26 237.837 1325.26 242.01 1325.26 245.5C1325.26 247.604 1324.2 249.007 1323 249.007C1321.59 249.007 1320.06 247.727 1320.06 245.5Z" stroke="white" stroke-opacity="0.58" stroke-width="2"/>
<path d="M1470 56.202C1439.96 56.202 1414.14 15.1333 1414.14 -7.09578e-06C1414.14 -12.9589 1442.07 -7.09578e-06 1470 -7.09578e-06C1525.86 -7.09578e-06 1581.72 -13.748 1581.72 -7.09578e-06C1581.72 14.3617 1523.75 56.202 1470 56.202Z" stroke="white" stroke-opacity="0.58" stroke-width="2"/>
<path d="M564.291 491C564.291 480.917 577.343 468.274 588 468.274C594.941 468.274 599.487 480.426 599.487 491C599.487 499.961 594.521 507.361 588 507.361C576.923 507.361 564.291 500.469 564.291 491Z" stroke="white" stroke-opacity="0.58" stroke-width="2"/>
<path d="M1138.36 491C1138.36 454.508 1157.68 417.35 1176 417.35C1193.65 417.35 1210.3 454.473 1210.3 491C1210.3 526.597 1193.64 561.616 1176 561.616C1157.67 561.616 1138.36 526.633 1138.36 491Z" stroke="white" stroke-opacity="0.58" stroke-width="2"/>
<path d="M715.039 736.5C715.039 714.738 722.127 697.921 735 697.921C762.058 697.921 794.892 710.284 794.892 736.5C794.892 767.082 759.097 811.518 735 811.518C719.176 811.518 715.039 771.536 715.039 736.5Z" stroke="white" stroke-opacity="0.58" stroke-width="2"/>
<path d="M1279.3 736.5C1279.3 701.429 1300.59 677.142 1323 677.142C1347.32 677.142 1372.75 700.657 1372.75 736.5C1372.75 784.337 1346.88 844.52 1323 844.52C1300.15 844.52 1279.3 785.109 1279.3 736.5Z" stroke="white" stroke-opacity="0.58" stroke-width="2"/>
<path d="M-8.80096e-05 806.643C2.63541 806.643 10.4999 902.248 10.4999 982C10.4999 989.926 0.472412 989.979 -8.80096e-05 982C-4.77759 902.3 -2.61459 806.643 -8.80096e-05 806.643Z" stroke="white" stroke-opacity="0.58" stroke-width="2"/>
<path d="M289.611 982C289.611 980.159 291.102 975.617 294 975.547C366.796 973.758 368.266 990.189 441 978.282C515.266 966.13 516.579 926.201 588 927.446C622.744 928.06 653.331 967.603 653.331 982C653.331 994.871 620.665 982 588 982C514.5 982 514.5 982 441 982C367.5 982 367.5 982 294 982C291.805 982 289.611 983.385 289.611 982Z" stroke="white" stroke-opacity="0.58" stroke-width="2"/>
</g>
</g>
<defs>
<clipPath id="clip0_7_119">
<rect width="1512" height="982" fill="white"/>
</clipPath>
</defs>
</svg>
