<svg width="180" height="104" viewBox="0 0 180 104" fill="none" xmlns="http://www.w3.org/2000/svg">
<path d="M5.41444 47V1.33608H15.9824V38.3891H38.8796V47H5.41444ZM66.1994 47.7828C62.5898 47.7828 59.2411 47.1957 56.1534 46.0215C53.1091 44.8473 50.4562 43.1947 48.1948 41.0637C45.9768 38.9327 44.2373 36.4321 42.9761 33.5618C41.7584 30.6915 41.1495 27.5602 41.1495 24.168C41.1495 20.7759 41.7584 17.6446 42.9761 14.7743C44.2373 11.904 45.9986 9.40338 48.26 7.27239C50.5215 5.14141 53.1743 3.48881 56.2186 2.3146C59.2629 1.14038 62.5681 0.553276 66.1342 0.553276C69.7438 0.553276 73.049 1.14038 76.0498 2.3146C79.094 3.48881 81.7252 5.14141 83.9431 7.27239C86.2046 9.40338 87.9659 11.904 89.2271 14.7743C90.4883 17.6011 91.1189 20.7324 91.1189 24.168C91.1189 27.5602 90.4883 30.7132 89.2271 33.627C87.9659 36.4973 86.2046 38.9979 83.9431 41.1289C81.7252 43.2164 79.094 44.8473 76.0498 46.0215C73.049 47.1957 69.7656 47.7828 66.1994 47.7828ZM66.1342 38.7805C68.1782 38.7805 70.0482 38.4326 71.7443 37.7367C73.4839 37.0409 75.006 36.0407 76.3107 34.736C77.6154 33.4313 78.6157 31.8874 79.3115 30.1044C80.0508 28.3213 80.4205 26.3425 80.4205 24.168C80.4205 21.9936 80.0508 20.0148 79.3115 18.2317C78.6157 16.4487 77.6154 14.9048 76.3107 13.6001C75.0495 12.2954 73.5491 11.2952 71.8096 10.5993C70.07 9.90351 68.1782 9.55559 66.1342 9.55559C64.0902 9.55559 62.1984 9.90351 60.4588 10.5993C58.7627 11.2952 57.2623 12.2954 55.9577 13.6001C54.653 14.9048 53.631 16.4487 52.8917 18.2317C52.1958 20.0148 51.8479 21.9936 51.8479 24.168C51.8479 26.299 52.1958 28.2778 52.8917 30.1044C53.631 31.8874 54.6312 33.4313 55.8924 34.736C57.1971 36.0407 58.7192 37.0409 60.4588 37.7367C62.1984 38.4326 64.0902 38.7805 66.1342 38.7805ZM108.846 21.8848H130.765V30.3653H108.846V21.8848ZM109.629 47H99.0611V1.33608H133.57V9.81652H109.629V47ZM140.724 47V1.33608H151.292V47H140.724Z" fill="white"/>
<path d="M14.8734 103V65.947H0.260937V57.3361H40.0538V65.947H25.4413V103H14.8734ZM55.4597 75.7321H77.4437V83.9516H55.4597V75.7321ZM56.2425 94.5196H81.0968V103H45.7398V57.3361H80.2487V65.8165H56.2425V94.5196ZM111.359 103.783C107.836 103.783 104.553 103.217 101.508 102.087C98.5077 100.913 95.8983 99.2599 93.6803 97.1289C91.4624 94.9979 89.7228 92.4973 88.4616 89.627C87.2439 86.7567 86.635 83.6037 86.635 80.168C86.635 76.7324 87.2439 73.5794 88.4616 70.7091C89.7228 67.8388 91.4624 65.3381 93.6803 63.2072C95.9418 61.0762 98.5729 59.4453 101.574 58.3146C104.574 57.1404 107.858 56.5533 111.424 56.5533C115.382 56.5533 118.948 57.2491 122.122 58.6408C125.341 59.9889 128.037 61.9895 130.211 64.6423L123.427 70.9048C121.861 69.1217 120.122 67.7953 118.208 66.9255C116.295 66.0122 114.207 65.5556 111.946 65.5556C109.815 65.5556 107.858 65.9035 106.075 66.5993C104.292 67.2952 102.748 68.2954 101.443 69.6001C100.139 70.9048 99.1165 72.4487 98.3772 74.2317C97.6814 76.0148 97.3334 77.9936 97.3334 80.168C97.3334 82.3425 97.6814 84.3213 98.3772 86.1044C99.1165 87.8874 100.139 89.4313 101.443 90.736C102.748 92.0407 104.292 93.0409 106.075 93.7367C107.858 94.4326 109.815 94.7805 111.946 94.7805C114.207 94.7805 116.295 94.3456 118.208 93.4758C120.122 92.5625 121.861 91.1926 123.427 89.3661L130.211 95.6285C128.037 98.2814 125.341 100.304 122.122 101.695C118.948 103.087 115.36 103.783 111.359 103.783ZM168.66 57.3361H179.228V103H168.66V57.3361ZM147.916 103H137.348V57.3361H147.916V103ZM169.443 84.2778H147.133V75.3407H169.443V84.2778Z" fill="#00FF38"/>
</svg>
