<svg width="369" height="154" viewBox="0 0 369 154" fill="none" xmlns="http://www.w3.org/2000/svg">
<path d="M6.67078 134.222L18.5474 28.6341L1.12044e-05 1.3015L35.4677 15.2932L96.1524 38.5584L30.7495 28.6341L30.7495 69.4703L6.67078 134.222Z" fill="url(#paint0_linear_51_136)"/>
<path d="M47.4658 49.3607L95.8268 38.5584L89.8071 37.0941L47.4658 49.3607Z" fill="#00FF38"/>
<path d="M20.1743 6.67075L125.763 18.5474L153.095 -8.10877e-06L139.104 35.4676L115.838 96.1524L125.763 30.7495L84.9265 30.7495L20.1743 6.67075Z" fill="url(#paint1_linear_51_136)"/>
<path d="M105.036 47.4658L115.838 95.8267L117.303 89.8071L105.036 47.4658Z" fill="#00FF38"/>
<path d="M134.548 146.424L28.9598 134.548L1.62725 153.095L15.6189 117.628L38.8842 56.9428L28.9598 122.346L69.796 122.346L134.548 146.424Z" fill="url(#paint2_linear_51_136)"/>
<path d="M49.6865 105.629L38.8842 57.2685L37.4199 63.2882L49.6865 105.629Z" fill="#00FF38"/>
<path d="M150.329 20.174L138.453 125.762L157 153.095L121.532 139.103L60.8476 115.838L126.25 125.762L126.25 84.9262L150.329 20.174Z" fill="url(#paint3_linear_51_136)"/>
<path d="M109.534 105.036L61.1733 115.838L67.1929 117.302L109.534 105.036Z" fill="#00FF38"/>
<path d="M189.414 76V30.3361H199.982V67.3891H222.88V76H189.414ZM250.199 76.7828C246.59 76.7828 243.241 76.1957 240.153 75.0215C237.109 73.8473 234.456 72.1947 232.195 70.0637C229.977 67.9327 228.237 65.4321 226.976 62.5618C225.758 59.6915 225.15 56.5602 225.15 53.168C225.15 49.7759 225.758 46.6446 226.976 43.7743C228.237 40.904 229.999 38.4034 232.26 36.2724C234.521 34.1414 237.174 32.4888 240.219 31.3146C243.263 30.1404 246.568 29.5533 250.134 29.5533C253.744 29.5533 257.049 30.1404 260.05 31.3146C263.094 32.4888 265.725 34.1414 267.943 36.2724C270.205 38.4034 271.966 40.904 273.227 43.7743C274.488 46.6011 275.119 49.7324 275.119 53.168C275.119 56.5602 274.488 59.7132 273.227 62.627C271.966 65.4973 270.205 67.9979 267.943 70.1289C265.725 72.2164 263.094 73.8473 260.05 75.0215C257.049 76.1957 253.766 76.7828 250.199 76.7828ZM250.134 67.7805C252.178 67.7805 254.048 67.4326 255.744 66.7367C257.484 66.0409 259.006 65.0407 260.311 63.736C261.615 62.4313 262.616 60.8874 263.311 59.1044C264.051 57.3213 264.42 55.3425 264.42 53.168C264.42 50.9936 264.051 49.0148 263.311 47.2317C262.616 45.4487 261.615 43.9048 260.311 42.6001C259.05 41.2954 257.549 40.2952 255.81 39.5993C254.07 38.9035 252.178 38.5556 250.134 38.5556C248.09 38.5556 246.198 38.9035 244.459 39.5993C242.763 40.2952 241.262 41.2954 239.958 42.6001C238.653 43.9048 237.631 45.4487 236.892 47.2317C236.196 49.0148 235.848 50.9936 235.848 53.168C235.848 55.299 236.196 57.2778 236.892 59.1044C237.631 60.8874 238.631 62.4313 239.892 63.736C241.197 65.0407 242.719 66.0409 244.459 66.7367C246.198 67.4326 248.09 67.7805 250.134 67.7805ZM292.846 50.8848H314.765V59.3653H292.846V50.8848ZM293.629 76H283.061V30.3361H317.57V38.8165H293.629V76ZM324.724 76V30.3361H335.292V76H324.724Z" fill="white"/>
<path d="M198.873 132V94.947H184.261V86.3361H224.054V94.947H209.441V132H198.873ZM239.46 104.732H261.444V112.952H239.46V104.732ZM240.243 123.52H265.097V132H229.74V86.3361H264.249V94.8165H240.243V123.52ZM295.359 132.783C291.836 132.783 288.553 132.217 285.508 131.087C282.508 129.913 279.898 128.26 277.68 126.129C275.462 123.998 273.723 121.497 272.462 118.627C271.244 115.757 270.635 112.604 270.635 109.168C270.635 105.732 271.244 102.579 272.462 99.7091C273.723 96.8388 275.462 94.3381 277.68 92.2072C279.942 90.0762 282.573 88.4453 285.574 87.3146C288.574 86.1404 291.858 85.5533 295.424 85.5533C299.382 85.5533 302.948 86.2491 306.122 87.6408C309.341 88.9889 312.037 90.9895 314.211 93.6423L307.427 99.9048C305.861 98.1217 304.122 96.7953 302.208 95.9255C300.295 95.0122 298.207 94.5556 295.946 94.5556C293.815 94.5556 291.858 94.9035 290.075 95.5993C288.292 96.2952 286.748 97.2954 285.443 98.6001C284.139 99.9048 283.117 101.449 282.377 103.232C281.681 105.015 281.333 106.994 281.333 109.168C281.333 111.343 281.681 113.321 282.377 115.104C283.117 116.887 284.139 118.431 285.443 119.736C286.748 121.041 288.292 122.041 290.075 122.737C291.858 123.433 293.815 123.78 295.946 123.78C298.207 123.78 300.295 123.346 302.208 122.476C304.122 121.563 305.861 120.193 307.427 118.366L314.211 124.629C312.037 127.281 309.341 129.304 306.122 130.695C302.948 132.087 299.36 132.783 295.359 132.783ZM352.66 86.3361H363.228V132H352.66V86.3361ZM331.916 132H321.348V86.3361H331.916V132ZM353.443 113.278H331.133V104.341H353.443V113.278Z" fill="#00FF38"/>
<defs>
<linearGradient id="paint0_linear_51_136" x1="20.0557" y1="24.2222" x2="6.8444" y2="130.39" gradientUnits="userSpaceOnUse">
<stop stop-color="#00FF38"/>
<stop offset="1" stop-color="#004910"/>
</linearGradient>
<linearGradient id="paint1_linear_51_136" x1="139.594" y1="23.7447" x2="22.4433" y2="7.50918" gradientUnits="userSpaceOnUse">
<stop stop-color="#00FF38"/>
<stop offset="1" stop-color="#00FF38" stop-opacity="0"/>
<stop offset="1" stop-color="#004910"/>
</linearGradient>
<linearGradient id="paint2_linear_51_136" x1="22.2842" y1="128.639" x2="130.203" y2="144.238" gradientUnits="userSpaceOnUse">
<stop stop-color="#00FF38"/>
<stop offset="1" stop-color="#004910"/>
</linearGradient>
<linearGradient id="paint3_linear_51_136" x1="134.5" y1="111.926" x2="148.348" y2="25.8139" gradientUnits="userSpaceOnUse">
<stop stop-color="#00FF38"/>
<stop offset="1" stop-color="#004910"/>
</linearGradient>
</defs>
</svg>
